<?xml version="1.0" standalone="no"?>
<!DOCTYPE svg PUBLIC "-//W3C//DTD SVG 20010904//EN"
 "http://www.w3.org/TR/2001/REC-SVG-20010904/DTD/svg10.dtd">
<svg version="1.0" xmlns="http://www.w3.org/2000/svg"
 width="480.000000pt" height="480.000000pt" viewBox="0 0 480.000000 480.000000"
 preserveAspectRatio="xMidYMid meet">
<metadata>
Created by potrace 1.14, written by Peter Selinger 2001-2017
</metadata>
<g transform="translate(0.000000,480.000000) scale(0.100000,-0.100000)"
fill="#000000" stroke="none">
<path d="M2185 4713 c-724 -23 -1423 -134 -1741 -275 -165 -73 -333 -221 -381
-336 -44 -104 -56 -288 -29 -453 27 -168 135 -513 241 -774 20 -49 46 -112 57
-140 11 -27 33 -78 49 -113 16 -34 29 -64 29 -67 0 -21 265 -529 326 -626 13
-21 24 -40 24 -43 0 -2 18 -33 39 -67 22 -35 59 -95 82 -134 23 -38 95 -150
161 -248 65 -97 118 -179 118 -182 0 -3 7 -13 16 -23 8 -9 77 -100 152 -202
76 -102 149 -198 164 -215 14 -16 59 -68 98 -115 40 -47 79 -90 87 -97 9 -7
12 -17 7 -25 -4 -7 -3 -10 1 -5 11 10 126 -103 118 -116 -3 -6 -2 -7 4 -4 10
6 102 -81 103 -98 0 -5 4 -10 8 -10 16 0 141 -102 134 -109 -3 -4 2 -4 12 0
15 6 17 4 11 -6 -5 -8 -4 -11 3 -6 6 3 37 -7 69 -23 73 -36 127 -53 172 -55
20 -1 41 -4 46 -7 6 -4 26 -4 45 -2 19 2 52 4 72 4 21 0 40 4 43 10 4 5 11 7
16 4 5 -4 9 -1 9 5 0 6 4 9 9 6 5 -4 22 -1 38 6 15 6 33 13 38 13 23 4 114 53
108 59 -5 5 13 9 20 4 3 -3 43 30 83 70 18 17 37 32 41 32 14 1 83 67 76 74
-3 3 2 6 12 6 10 0 16 2 13 5 -7 7 84 101 95 97 4 -1 6 1 3 6 -3 5 3 14 14 22
10 7 16 19 13 27 -3 7 1 13 10 13 9 0 26 15 39 33 12 17 31 41 41 52 11 11 64
76 119 145 55 69 106 130 114 136 8 6 11 13 8 16 -3 3 8 19 23 36 54 59 69 77
68 84 0 4 19 31 43 60 80 99 132 171 132 184 0 6 7 18 16 25 24 20 114 158
114 175 0 8 3 14 8 14 4 0 18 17 31 38 13 20 36 55 50 77 14 22 32 46 39 54 7
7 16 26 19 42 3 16 9 29 14 29 5 0 15 14 24 30 9 17 13 30 11 30 -2 0 9 13 25
29 16 16 29 39 29 50 0 11 5 23 10 26 6 4 24 33 40 65 16 32 34 61 40 65 6 4
8 15 5 26 -4 10 -2 19 4 19 12 0 51 72 51 95 0 9 4 14 9 11 8 -5 47 82 43 97
-1 4 2 7 6 7 12 0 33 50 27 61 -4 5 0 9 8 9 14 0 57 92 57 123 0 10 4 16 10
12 5 -3 14 13 21 35 7 22 16 40 20 40 4 0 5 10 1 22 -3 13 -1 19 5 15 7 -4 16
12 24 43 7 27 17 50 21 50 5 0 6 5 3 10 -3 6 -2 10 4 10 5 0 12 13 16 30 4 16
11 32 16 35 5 4 9 15 9 26 0 10 4 27 10 37 13 22 55 134 55 147 0 6 4 16 8 23
5 6 5 12 0 12 -4 0 -2 4 6 9 8 5 15 17 16 28 0 10 9 33 18 52 9 18 14 38 11
43 -4 6 -1 14 6 18 8 5 13 22 13 39 0 17 5 31 10 31 5 0 7 6 4 14 -3 8 -2 16
3 18 5 2 11 20 12 40 2 21 7 38 11 38 5 0 5 10 2 21 -5 16 -4 19 6 14 9 -6 11
-3 6 8 -3 9 0 29 9 44 8 17 12 39 8 57 -4 19 -3 26 5 22 6 -4 10 4 10 21 0 15
3 83 7 151 9 180 -18 301 -93 425 -21 34 -36 67 -35 72 2 6 0 7 -4 3 -3 -4
-28 12 -55 36 -68 62 -163 108 -329 160 -450 141 -911 223 -1385 246 -222 10
-561 17 -690 13z"/>
</g>
</svg>
